<svg id="Capa_1" enable-background="new 0 0 512 512" height="512" viewBox="0 0 512 512" width="512" xmlns="http://www.w3.org/2000/svg" xmlns:xlink="http://www.w3.org/1999/xlink"><linearGradient id="SVGID_1_" gradientUnits="userSpaceOnUse" x1="256" x2="256" y1="512" y2="0"><stop offset="0" stop-color="#a93aff"/><stop offset="1" stop-color="#ff81ff"/></linearGradient><g><g><g><path d="m196 300c-8.284 0-15 6.716-15 15s6.716 15 15 15 15-6.716 15-15-6.716-15-15-15zm301 92c-8.284 0-15 6.716-15 15v30c0 24.393-21.065 45-46 45-24.813 0-45-20.187-45-45 0-20.569 0-154.809 0-173.535l99.347-59.99c.009-.005.016-.012.025-.017.009-.006.019-.01.028-.016 13.525-8.243 21.6-22.614 21.6-38.442 0-16.112-8.696-31.09-22.696-39.089-.005-.003-.009-.004-.014-.007-.004-.003-.008-.006-.013-.008 0 0-210.972-119.985-210.973-119.985s-.002-.001-.003-.001l-.024-.014c-.013-.007-.026-.012-.038-.019-6.751-3.844-14.439-5.877-22.239-5.877-7.796 0-15.48 2.031-22.23 5.871-.016.009-.033.015-.049.025l-211 120c-.004.003-.008.006-.013.008-.005.003-.01.005-.014.007-13.998 7.999-22.694 22.977-22.694 39.089 0 15.827 8.075 30.198 21.601 38.443.01.006.021.011.031.017.008.005.015.01.022.015l99.346 59.99v173.535c0 24.813-20.187 45-45 45-24.935 0-46-20.607-46-45v-30c0-8.284-6.716-15-15-15s-15 6.716-15 15v30c0 41.458 34.534 75 76 75 41.355 0 75-33.645 75-75v-47h30v107c0 8.284 6.716 15 15 15s15-6.716 15-15v-107h30v107c0 8.284 6.716 15 15 15s15-6.716 15-15v-107h30v107c0 8.284 6.716 15 15 15s15-6.716 15-15v-107h30v47c0 41.355 33.645 75 75 75 41.457 0 76-33.534 76-75v-30c0-8.284-6.716-15-15-15zm-374.963-162.954-84.826-51.222c-4.515-2.755-7.211-7.548-7.211-12.824 0-5.373 2.904-10.37 7.58-13.042l137.453-78.173c-30.374 46.389-48.64 99.726-52.996 155.261zm238.963 130.954h-210v-105c0-73.709 26.947-144.662 75.878-199.788 18.556-21.001 20.523-25.212 29.122-25.212 8.708 0 10.593 4.242 29.122 25.212 48.931 55.126 75.878 126.079 75.878 199.788zm-24.033-286.215 137.454 78.173c4.675 2.672 7.579 7.669 7.579 13.042 0 5.274-2.693 10.065-7.204 12.82l-84.833 51.226c-4.356-55.535-22.622-108.872-52.996-155.261zm-20.967 256.215c8.284 0 15-6.716 15-15s-6.716-15-15-15-15 6.716-15 15 6.716 15 15 15z" fill="url(#SVGID_1_)"/></g></g></g></svg>