<svg xmlns="http://www.w3.org/2000/svg">
	<symbol id="favorite" viewBox="0 0 24 24">
		<path
			d="M21.8768 3.10186C20.4889 1.71394 18.632 0.949646 16.6475 0.949646C14.939 0.949646 13.3252 1.51627 12.0236 2.55943C10.7033 1.51627 9.08747 0.949646 7.39566 0.949646C5.40197 0.949646 3.54009 1.71427 2.15222 3.10186C0.764297 4.48951 0 6.34679 0 8.33096C0 10.3154 0.764297 12.1724 2.15222 13.56L11.3896 22.7974C11.558 22.9661 11.779 23.0504 12 23.0504C12.2205 23.0504 12.4409 22.9663 12.6095 22.7986L21.8544 13.5819C23.2383 12.1669 24 10.3073 24 8.34535C24 6.36521 23.2484 4.50563 21.8768 3.10186ZM20.6276 12.3666L12.0008 20.9669L3.37294 12.3393C2.31136 11.2774 1.72659 9.85383 1.72659 8.33096C1.72659 6.80808 2.31136 5.38449 3.37294 4.32263C4.4348 3.26105 5.86331 2.67629 7.39566 2.67629C8.90358 2.67629 10.335 3.26363 11.4253 4.32952C11.7631 4.66018 12.305 4.65727 12.6391 4.32263C13.701 3.26105 15.1243 2.67629 16.6475 2.67629C18.1706 2.67629 19.5939 3.26105 20.6486 4.31569C21.6964 5.38763 22.2734 6.81872 22.2734 8.34535C22.2734 9.85355 21.6863 11.2846 20.6276 12.3666Z"/>
	</symbol>
	<symbol id="cart" viewBox="0 0 26 26">
		<path
			d="M9.15146 20.0606C7.51386 20.0606 6.18176 21.3927 6.18176 23.0303C6.18176 24.6679 7.51391 26 9.15146 26C10.7891 26 12.1211 24.6675 12.1211 23.0303C12.1211 21.3931 10.7891 20.0606 9.15146 20.0606ZM9.15146 24.1821C8.51659 24.1821 7.99994 23.6658 7.99994 23.0306C7.99994 22.3954 8.51659 21.8791 9.15146 21.8791C9.78663 21.8791 10.303 22.3954 10.303 23.0306C10.303 23.6658 9.78663 24.1821 9.15146 24.1821Z"/>
		<path
			d="M19.9397 20.0606C18.3018 20.0606 16.9697 21.3928 16.9697 23.0303C16.9697 24.6679 18.3018 26 19.9397 26C21.577 26 22.9094 24.6678 22.9094 23.0303C22.9094 21.3928 21.577 20.0606 19.9397 20.0606ZM19.9397 24.1818C19.3045 24.1818 18.7878 23.6652 18.7878 23.0303C18.7878 22.3954 19.3045 21.8791 19.9397 21.8791C20.5745 21.8791 21.0912 22.3951 21.0912 23.0303C21.0912 23.6655 20.5748 24.1818 19.9397 24.1818Z"/>
		<path
			d="M7.84841 19.1518H22C22.5024 19.1518 22.909 18.7449 22.909 18.2427C22.909 17.7406 22.5021 17.3337 22 17.3337H8.62145L6.01871 1.36906C5.9563 0.986629 5.65872 0.686054 5.2772 0.619683L1.79233 0.0136076C1.29624 -0.0724668 0.826872 0.25878 0.740797 0.753289C0.654418 1.24815 0.98597 1.71874 1.48048 1.80482L4.32804 2.29999L6.95105 18.3888C7.02296 18.8291 7.40265 19.1518 7.84841 19.1518Z"/>
		<path
			d="M25.0982 5.88906C24.927 5.6542 24.6543 5.51541 24.3636 5.51541H5.87872V7.33359H23.1167L21.2466 13.1518H7.18177V14.9699H21.9094C22.3039 14.9699 22.6539 14.7148 22.7748 14.339L25.2294 6.70263C25.3182 6.42602 25.2694 6.12362 25.0982 5.88906Z"/>
	</symbol>
	<symbol id="eye" viewBox="0 0 26 26">
		<path
			d="M25.8348 12.4943C25.6025 12.1765 20.0682 4.71426 12.9999 4.71426C5.93157 4.71426 0.397009 12.1765 0.164989 12.494C-0.0549962 12.7954 -0.0549962 13.2042 0.164989 13.5057C0.397009 13.8234 5.93157 21.2857 12.9999 21.2857C20.0682 21.2857 25.6025 13.8234 25.8348 13.5059C26.055 13.2045 26.055 12.7954 25.8348 12.4943ZM12.9999 19.5714C7.79331 19.5714 3.28388 14.6186 1.94899 12.9994C3.28215 11.3788 7.78214 6.42854 12.9999 6.42854C18.2062 6.42854 22.7153 11.3805 24.0508 13.0006C22.7176 14.6211 18.2176 19.5714 12.9999 19.5714Z"/>
		<path
			d="M12.9999 7.85715C10.1641 7.85715 7.85699 10.1643 7.85699 13C7.85699 15.8358 10.1641 18.1429 12.9999 18.1429C15.8356 18.1429 18.1428 15.8358 18.1428 13C18.1428 10.1643 15.8356 7.85715 12.9999 7.85715ZM12.9999 16.4286C11.1093 16.4286 9.57132 14.8906 9.57132 13C9.57132 11.1095 11.1093 9.57147 12.9999 9.57147C14.8904 9.57147 16.4284 11.1095 16.4284 13C16.4284 14.8906 14.8905 16.4286 12.9999 16.4286Z"/>
	</symbol>
	<symbol id="search" viewBox="0 0 24 24">
		<path
			d="M23.7068 22.2937L16.8818 15.4688C18.2038 13.8358 18.9998 11.7608 18.9998 9.50084C18.9998 4.26289 14.7378 0.000915527 9.49988 0.000915527C4.26193 0.000915527 0 4.26284 0 9.50079C0 14.7387 4.26197 19.0007 9.49992 19.0007C11.7599 19.0007 13.8349 18.2047 15.4678 16.8827L22.2928 23.7077C22.4878 23.9027 22.7438 24.0007 22.9998 24.0007C23.2558 24.0007 23.5118 23.9027 23.7068 23.7077C24.0978 23.3167 24.0978 22.6847 23.7068 22.2937ZM9.49992 17.0007C5.36395 17.0007 2 13.6368 2 9.50079C2 5.36482 5.36395 2.00086 9.49992 2.00086C13.6359 2.00086 16.9998 5.36482 16.9998 9.50079C16.9998 13.6368 13.6359 17.0007 9.49992 17.0007Z"/>
	</symbol>
	<symbol id="user" viewBox="0 0 24 24">
		<path
			d="M12 13.5182C4.7889 13.5182 0.817505 16.9296 0.817505 23.1241C0.817505 23.6079 1.20961 24 1.69341 24H22.3066C22.7903 24 23.1825 23.6079 23.1825 23.1241C23.1825 16.9299 19.2111 13.5182 12 13.5182ZM2.60119 22.2482C2.94572 17.6166 6.10336 15.2701 12 15.2701C17.8966 15.2701 21.0543 17.6166 21.3991 22.2482H2.60119Z"/>
		<path
			d="M12 0C8.6876 0 6.18982 2.54803 6.18982 5.92673C6.18982 9.40439 8.79626 12.2333 12 12.2333C15.2038 12.2333 17.8102 9.40439 17.8102 5.92702C17.8102 2.54803 15.3124 0 12 0ZM12 10.4818C9.76207 10.4818 7.94163 8.43853 7.94163 5.92702C7.94163 3.50775 9.64849 1.75181 12 1.75181C14.3139 1.75181 16.0584 3.54656 16.0584 5.92702C16.0584 8.43853 14.238 10.4818 12 10.4818Z"/>
	</symbol>
</svg>